<mxfile host="65bd71144e">
    <diagram id="CAGhkkLFCOdJS6Z2vXz-" name="Page-1">
        <mxGraphModel dx="1132" dy="779" grid="1" gridSize="10" guides="1" tooltips="1" connect="1" arrows="1" fold="1" page="1" pageScale="1" pageWidth="850" pageHeight="1100" math="0" shadow="0">
            <root>
                <mxCell id="0"/>
                <mxCell id="1" parent="0"/>
                <mxCell id="2" style="edgeStyle=none;html=1;fillColor=#60a917;strokeColor=#2D7600;strokeWidth=6;" edge="1" parent="1" source="4">
                    <mxGeometry relative="1" as="geometry">
                        <mxPoint x="160" y="120" as="targetPoint"/>
                    </mxGeometry>
                </mxCell>
                <mxCell id="3" style="edgeStyle=none;html=1;fillColor=#60a917;strokeColor=#2D7600;strokeWidth=6;" edge="1" parent="1" source="4">
                    <mxGeometry relative="1" as="geometry">
                        <mxPoint x="620" y="130" as="targetPoint"/>
                    </mxGeometry>
                </mxCell>
                <mxCell id="19" value="&lt;font style=&quot;font-size: 18px;&quot;&gt;10.0.2.51&lt;/font&gt;" style="edgeStyle=none;html=1;fillColor=#d80073;strokeColor=#A50040;strokeWidth=5;" edge="1" parent="1">
                    <mxGeometry relative="1" as="geometry">
                        <mxPoint x="180" y="530" as="targetPoint"/>
                        <mxPoint x="370" y="140" as="sourcePoint"/>
                    </mxGeometry>
                </mxCell>
                <mxCell id="4" value="&lt;font size=&quot;3&quot;&gt;VirtualBox&lt;br&gt;NAT Network&lt;br&gt;10.0.2.0/24&lt;br&gt;&lt;/font&gt;" style="ellipse;shape=cloud;whiteSpace=wrap;html=1;" vertex="1" parent="1">
                    <mxGeometry x="320" width="160" height="124" as="geometry"/>
                </mxCell>
                <mxCell id="5" style="edgeStyle=none;html=1;strokeWidth=6;fillColor=#0050ef;strokeColor=#001DBC;" edge="1" parent="1" source="6">
                    <mxGeometry relative="1" as="geometry">
                        <mxPoint x="117" y="520" as="targetPoint"/>
                    </mxGeometry>
                </mxCell>
                <mxCell id="6" value="&lt;font style=&quot;font-size: 18px;&quot;&gt;VirtualBox&lt;br style=&quot;&quot;&gt;intnet-A&lt;br&gt;192.168.10.0/24&lt;/font&gt;" style="ellipse;shape=cloud;whiteSpace=wrap;html=1;" vertex="1" parent="1">
                    <mxGeometry x="33.5" y="320" width="166.5" height="120" as="geometry"/>
                </mxCell>
                <mxCell id="7" style="edgeStyle=none;html=1;strokeWidth=6;fillColor=#0050ef;strokeColor=#001DBC;" edge="1" parent="1" source="8">
                    <mxGeometry relative="1" as="geometry">
                        <mxPoint x="680" y="530" as="targetPoint"/>
                    </mxGeometry>
                </mxCell>
                <mxCell id="8" value="&lt;span style=&quot;font-size: 18px;&quot;&gt;VirtualBox&lt;/span&gt;&lt;br style=&quot;font-size: 18px;&quot;&gt;&lt;span style=&quot;font-size: 18px;&quot;&gt;intnet-B&lt;/span&gt;&lt;br style=&quot;font-size: 18px;&quot;&gt;&lt;span style=&quot;font-size: 18px;&quot;&gt;192.168.20.0/24&lt;/span&gt;" style="ellipse;shape=cloud;whiteSpace=wrap;html=1;" vertex="1" parent="1">
                    <mxGeometry x="597.5" y="320" width="167" height="120" as="geometry"/>
                </mxCell>
                <mxCell id="9" style="edgeStyle=none;html=1;strokeWidth=6;fillColor=#0050ef;strokeColor=#001DBC;" edge="1" parent="1" source="10" target="6">
                    <mxGeometry relative="1" as="geometry"/>
                </mxCell>
                <mxCell id="10" value="&lt;font style=&quot;font-size: 18px;&quot;&gt;pfSense A&lt;br&gt;WAN: 10.0.2.5&lt;br&gt;LAN: 192.168.10.1&lt;/font&gt;" style="aspect=fixed;html=1;points=[];align=center;image;fontSize=12;image=img/lib/azure2/networking/Virtual_Router.svg;" vertex="1" parent="1">
                    <mxGeometry x="70" y="110" width="68" height="68" as="geometry"/>
                </mxCell>
                <mxCell id="11" style="edgeStyle=none;html=1;strokeWidth=6;fillColor=#0050ef;strokeColor=#001DBC;" edge="1" parent="1" source="12">
                    <mxGeometry relative="1" as="geometry">
                        <mxPoint x="680" y="320" as="targetPoint"/>
                    </mxGeometry>
                </mxCell>
                <mxCell id="12" value="&lt;span style=&quot;font-size: 18px;&quot;&gt;pfSense B&lt;/span&gt;&lt;br style=&quot;font-size: 18px;&quot;&gt;&lt;span style=&quot;font-size: 18px;&quot;&gt;WAN: 10.0.2.6&lt;/span&gt;&lt;br style=&quot;font-size: 18px;&quot;&gt;&lt;span style=&quot;font-size: 18px;&quot;&gt;LAN: 192.168.20.1&lt;/span&gt;" style="aspect=fixed;html=1;points=[];align=center;image;fontSize=12;image=img/lib/azure2/networking/Virtual_Router.svg;" vertex="1" parent="1">
                    <mxGeometry x="640" y="110" width="68" height="68" as="geometry"/>
                </mxCell>
                <mxCell id="13" style="edgeStyle=none;html=1;strokeWidth=6;fontSize=18;" edge="1" parent="1" source="15">
                    <mxGeometry relative="1" as="geometry">
                        <mxPoint x="620" y="589" as="targetPoint"/>
                    </mxGeometry>
                </mxCell>
                <mxCell id="14" style="edgeStyle=none;html=1;strokeWidth=6;fontSize=18;" edge="1" parent="1" source="15">
                    <mxGeometry relative="1" as="geometry">
                        <mxPoint x="170" y="589" as="targetPoint"/>
                    </mxGeometry>
                </mxCell>
                <mxCell id="15" value="&lt;font color=&quot;#f7f7f7&quot; size=&quot;3&quot;&gt;VPN Tunel&lt;/font&gt;" style="sketch=0;outlineConnect=0;fontColor=#232F3E;gradientColor=none;fillColor=#4D27AA;strokeColor=none;dashed=0;verticalLabelPosition=bottom;verticalAlign=top;align=center;html=1;fontSize=12;fontStyle=0;aspect=fixed;pointerEvents=1;shape=mxgraph.aws4.vpn_connection;" vertex="1" parent="1">
                    <mxGeometry x="350" y="550" width="70" height="78" as="geometry"/>
                </mxCell>
                <mxCell id="16" value="&lt;font size=&quot;3&quot;&gt;PC A (Kali)&lt;br&gt;192.168.10.5&lt;br&gt;&lt;/font&gt;" style="shape=mxgraph.cisco.computers_and_peripherals.pc;html=1;pointerEvents=1;dashed=0;fillColor=#036897;strokeColor=#ffffff;strokeWidth=2;verticalLabelPosition=bottom;verticalAlign=top;align=center;outlineConnect=0;" vertex="1" parent="1">
                    <mxGeometry x="77.75" y="540" width="78" height="70" as="geometry"/>
                </mxCell>
                <mxCell id="17" value="&lt;font style=&quot;font-size: 16px;&quot;&gt;PC B (External-W10)&lt;br&gt;192.168.20.5&lt;br&gt;&lt;/font&gt;" style="verticalLabelPosition=bottom;html=1;verticalAlign=top;align=center;strokeColor=none;fillColor=#00BEF2;shape=mxgraph.azure.laptop;pointerEvents=1;" vertex="1" parent="1">
                    <mxGeometry x="610" y="550" width="142" height="70" as="geometry"/>
                </mxCell>
                <mxCell id="20" value="&lt;span style=&quot;font-size: 18px;&quot;&gt;10.0.2.52&lt;/span&gt;" style="edgeStyle=none;html=1;fillColor=#d80073;strokeColor=#A50040;strokeWidth=5;" edge="1" parent="1">
                    <mxGeometry relative="1" as="geometry">
                        <mxPoint x="600" y="520" as="targetPoint"/>
                        <mxPoint x="430" y="140" as="sourcePoint"/>
                    </mxGeometry>
                </mxCell>
            </root>
        </mxGraphModel>
    </diagram>
</mxfile>